M48
INCH,TZ
T01C0.0320
T02C0.0300
T03C0.0394
T04C0.0400
T05C0.0600
%
T01
X-984Y+5984
X-984Y+4984
X-984Y+3984
X-984Y+2984
X-984Y+1984
X-984Y+984
X-984Y-16
X-984Y-1016
X-984Y-2016
X-984Y-3016
X-984Y-4016
X-984Y-5016
X+5016Y-5016
X+5016Y-4016
X+5016Y-3016
X+5016Y-2016
X+5016Y-1016
X+5016Y-16
X+5016Y+984
X+5016Y+1984
X+5016Y+2984
X+5016Y+3984
X+5016Y+4984
X+5016Y+5984
T02
X+0Y+5906
X+0Y+4906
X+0Y+3906
X+0Y+2906
X+3000Y+2906
X+3000Y+3906
X+3000Y+4906
X+3000Y+5906
X+3937Y+984
X-63Y+984
X+0Y-4921
X+0Y-921
X+4921Y-7874
X+921Y-7874
X+984Y-9843
X+4984Y-9843
T03
X+0Y-13780
X+1000Y-13780
X+2000Y-13780
X+3000Y-13780
X+4000Y-13780
X+5000Y-13780
T04
X-2953Y+6921
X-2953Y+5921
X-2953Y+4921
T05
X-2953Y+2953
X-2953Y+983
X-1969Y-7874
X-1969Y-9844
X-1969Y-11814
M30
