G04 PROTEUS RS274X GERBER FILE*
%FSLAX26Y26*%
%MOIN*%
G01*
%ADD70C,0.008000*%
%ADD71C,0.006000*%
D70*
X-393701Y-1574803D02*
X+590551Y-1574803D01*
X+590551Y+787402D01*
X-393701Y+787402D01*
X-393701Y-1574803D01*
D71*
X-158425Y-611575D02*
X+561575Y-611575D01*
X+561575Y+708425D01*
X-158425Y+708425D01*
X-158425Y-611575D01*
X+201575Y+696425D02*
X+213575Y+708425D01*
X+189575Y+708425D02*
X+201575Y+696425D01*
D70*
X-23425Y+723425D02*
X-23425Y+759425D01*
X+7825Y+759425D01*
X+14075Y+753425D01*
X+14075Y+747425D01*
X+7825Y+741425D01*
X-23425Y+741425D01*
X+26575Y+723425D02*
X+26575Y+759425D01*
X+57825Y+759425D01*
X+64075Y+753425D01*
X+64075Y+747425D01*
X+57825Y+741425D01*
X+26575Y+741425D01*
X+57825Y+741425D02*
X+64075Y+735425D01*
X+64075Y+723425D01*
X+76575Y+747425D02*
X+89075Y+759425D01*
X+101575Y+759425D01*
X+114075Y+747425D01*
X+114075Y+735425D01*
X+101575Y+723425D01*
X+89075Y+723425D01*
X+76575Y+735425D01*
X+76575Y+747425D01*
X+176575Y+723425D02*
X+176575Y+759425D01*
X+195325Y+741425D01*
X+214075Y+759425D01*
X+214075Y+723425D01*
X+232825Y+759425D02*
X+257825Y+759425D01*
X+245325Y+759425D02*
X+245325Y+723425D01*
X+232825Y+723425D02*
X+257825Y+723425D01*
X+314075Y+729425D02*
X+307825Y+723425D01*
X+289075Y+723425D01*
X+276575Y+735425D01*
X+276575Y+747425D01*
X+289075Y+759425D01*
X+307825Y+759425D01*
X+314075Y+753425D01*
X+326575Y+723425D02*
X+326575Y+759425D01*
X+357825Y+759425D01*
X+364075Y+753425D01*
X+364075Y+747425D01*
X+357825Y+741425D01*
X+326575Y+741425D01*
X+357825Y+741425D02*
X+364075Y+735425D01*
X+364075Y+723425D01*
X+376575Y+747425D02*
X+389075Y+759425D01*
X+401575Y+759425D01*
X+414075Y+747425D01*
X+414075Y+735425D01*
X+401575Y+723425D01*
X+389075Y+723425D01*
X+376575Y+735425D01*
X+376575Y+747425D01*
X+200000Y+640551D02*
X+250000Y+640551D01*
X+250000Y+240551D01*
X+50000Y+240551D01*
X+50000Y+640551D01*
X+100000Y+640551D01*
X+150000Y+590551D02*
X+160188Y+591510D01*
X+169625Y+594285D01*
X+178125Y+598725D01*
X+185500Y+604676D01*
X+191562Y+611987D01*
X+196125Y+620504D01*
X+199000Y+630076D01*
X+200000Y+640551D01*
X+150000Y+590551D02*
X+139525Y+591510D01*
X+129953Y+594285D01*
X+121436Y+598725D01*
X+114125Y+604676D01*
X+108174Y+611987D01*
X+103734Y+620504D01*
X+100959Y+630076D01*
X+100000Y+640551D01*
X+100000Y+692551D02*
X+100000Y+662551D01*
X+106250Y+656551D01*
X+131250Y+656551D01*
X+137500Y+662551D01*
X+137500Y+692551D01*
X+162500Y+680551D02*
X+175000Y+692551D01*
X+175000Y+656551D01*
X-50000Y-1452953D02*
X+550000Y-1452953D01*
X+550000Y-1302953D01*
X-50000Y-1302953D01*
X-50000Y-1452953D01*
X+200000Y-1286953D02*
X+200000Y-1250953D01*
X+231250Y-1250953D01*
X+237500Y-1256953D01*
X+237500Y-1262953D01*
X+231250Y-1268953D01*
X+237500Y-1274953D01*
X+237500Y-1280953D01*
X+231250Y-1286953D01*
X+200000Y-1286953D01*
X+200000Y-1268953D02*
X+231250Y-1268953D01*
X+250000Y-1250953D02*
X+287500Y-1250953D01*
X+268750Y-1250953D02*
X+268750Y-1286953D01*
X-345276Y+442126D02*
X-245276Y+442126D01*
X-245276Y+742126D01*
X-345276Y+742126D01*
X-345276Y+442126D01*
X-199276Y+542126D02*
X-193276Y+548376D01*
X-193276Y+573376D01*
X-199276Y+579626D01*
X-205276Y+579626D01*
X-211276Y+573376D01*
X-211276Y+548376D01*
X-217276Y+542126D01*
X-223276Y+542126D01*
X-229276Y+548376D01*
X-229276Y+573376D01*
X-223276Y+579626D01*
X-229276Y+592126D02*
X-193276Y+592126D01*
X-211276Y+610876D01*
X-193276Y+629626D01*
X-229276Y+629626D01*
X-445276Y+395276D02*
X-145276Y+395276D01*
X-145276Y-4724D02*
X-445276Y-4724D01*
X-445276Y+395276D02*
X-445276Y-4724D01*
X-145276Y+395276D02*
X-145276Y-4724D01*
X-93276Y+120276D02*
X-129276Y+120276D01*
X-129276Y+151526D01*
X-123276Y+157776D01*
X-117276Y+157776D01*
X-111276Y+151526D01*
X-111276Y+120276D01*
X-129276Y+170276D02*
X-93276Y+170276D01*
X-111276Y+189026D01*
X-93276Y+207776D01*
X-129276Y+207776D01*
X-93276Y+220276D02*
X-129276Y+220276D01*
X-129276Y+251526D01*
X-123276Y+257776D01*
X-117276Y+257776D01*
X-111276Y+251526D01*
X-111276Y+220276D01*
X-111276Y+251526D02*
X-105276Y+257776D01*
X-93276Y+257776D01*
X-346850Y-687402D02*
X-46850Y-687402D01*
X-46850Y-1287402D02*
X-346850Y-1287402D01*
X-46850Y-687402D02*
X-46850Y-1287402D01*
X-346850Y-687402D02*
X-346850Y-1287402D01*
X-850Y-1037402D02*
X+5150Y-1031152D01*
X+5150Y-1006152D01*
X-850Y-999902D01*
X-6850Y-999902D01*
X-12850Y-1006152D01*
X-12850Y-1031152D01*
X-18850Y-1037402D01*
X-24850Y-1037402D01*
X-30850Y-1031152D01*
X-30850Y-1006152D01*
X-24850Y-999902D01*
X+5150Y-987402D02*
X-30850Y-987402D01*
X+5150Y-949902D01*
X-30850Y-949902D01*
X+343701Y+98425D02*
X+293701Y+98425D01*
X+93701Y+73425D02*
X+293701Y+73425D01*
X+293701Y+123425D01*
X+93701Y+123425D01*
X+93701Y+73425D01*
X+93701Y+98425D02*
X+43701Y+98425D01*
X+68701Y+21425D02*
X+68701Y+57425D01*
X+99951Y+57425D01*
X+106201Y+51425D01*
X+106201Y+45425D01*
X+99951Y+39425D01*
X+68701Y+39425D01*
X+99951Y+39425D02*
X+106201Y+33425D01*
X+106201Y+21425D01*
X+118701Y+21425D02*
X+118701Y+57425D01*
X+143701Y+57425D01*
X+156201Y+45425D01*
X+156201Y+33425D01*
X+143701Y+21425D01*
X+118701Y+21425D01*
X+174951Y+57425D02*
X+199951Y+57425D01*
X+187451Y+57425D02*
X+187451Y+21425D01*
X+174951Y+21425D02*
X+199951Y+21425D01*
X+218701Y+57425D02*
X+218701Y+39425D01*
X+237451Y+21425D01*
X+256201Y+39425D01*
X+256201Y+57425D01*
X+281201Y+45425D02*
X+293701Y+57425D01*
X+293701Y+21425D01*
X+0Y-442126D02*
X+0Y-392126D01*
X-25000Y-392126D02*
X+25000Y-392126D01*
X+25000Y-192126D01*
X-25000Y-192126D01*
X-25000Y-392126D01*
X+0Y-192126D02*
X+0Y-142126D01*
X+57425Y-417126D02*
X+21425Y-417126D01*
X+21425Y-385876D01*
X+27425Y-379626D01*
X+33425Y-379626D01*
X+39425Y-385876D01*
X+39425Y-417126D01*
X+39425Y-385876D02*
X+45425Y-379626D01*
X+57425Y-379626D01*
X+57425Y-367126D02*
X+21425Y-367126D01*
X+21425Y-342126D01*
X+33425Y-329626D01*
X+45425Y-329626D01*
X+57425Y-342126D01*
X+57425Y-367126D01*
X+21425Y-310876D02*
X+21425Y-285876D01*
X+21425Y-298376D02*
X+57425Y-298376D01*
X+57425Y-310876D02*
X+57425Y-285876D01*
X+21425Y-267126D02*
X+39425Y-267126D01*
X+57425Y-248376D01*
X+39425Y-229626D01*
X+21425Y-229626D01*
X+27425Y-210876D02*
X+21425Y-204626D01*
X+21425Y-185876D01*
X+27425Y-179626D01*
X+33425Y-179626D01*
X+39425Y-185876D01*
X+39425Y-204626D01*
X+45425Y-210876D01*
X+57425Y-210876D01*
X+57425Y-179626D01*
X+442126Y-787402D02*
X+392126Y-787402D01*
X+192126Y-812402D02*
X+392126Y-812402D01*
X+392126Y-762402D01*
X+192126Y-762402D01*
X+192126Y-812402D01*
X+192126Y-787402D02*
X+142126Y-787402D01*
X+221850Y-864402D02*
X+221850Y-828402D01*
X+253100Y-828402D01*
X+259350Y-834402D01*
X+259350Y-840402D01*
X+253100Y-846402D01*
X+221850Y-846402D01*
X+253100Y-846402D02*
X+259350Y-852402D01*
X+259350Y-864402D01*
X+284350Y-840402D02*
X+296850Y-828402D01*
X+296850Y-864402D01*
X+148425Y-984252D02*
X+198425Y-984252D01*
X+198425Y-1009252D02*
X+398425Y-1009252D01*
X+398425Y-959252D01*
X+198425Y-959252D01*
X+198425Y-1009252D01*
X+398425Y-984252D02*
X+448425Y-984252D01*
X+228150Y-1041677D02*
X+228150Y-1005677D01*
X+259400Y-1005677D01*
X+265650Y-1011677D01*
X+265650Y-1017677D01*
X+259400Y-1023677D01*
X+228150Y-1023677D01*
X+259400Y-1023677D02*
X+265650Y-1029677D01*
X+265650Y-1041677D01*
X+284400Y-1011677D02*
X+290650Y-1005677D01*
X+309400Y-1005677D01*
X+315650Y-1011677D01*
X+315650Y-1017677D01*
X+309400Y-1023677D01*
X+290650Y-1023677D01*
X+284400Y-1029677D01*
X+284400Y-1041677D01*
X+315650Y-1041677D01*
X-295276Y-1359528D02*
X-295276Y-1299528D01*
X-270276Y-1299528D01*
X-265276Y-1309528D01*
X-265276Y-1319528D01*
X-270276Y-1329528D01*
X-295276Y-1329528D01*
X-255276Y-1359528D02*
X-255276Y-1299528D01*
X-230276Y-1299528D01*
X-225276Y-1309528D01*
X-225276Y-1319528D01*
X-230276Y-1329528D01*
X-255276Y-1329528D01*
X-230276Y-1329528D02*
X-225276Y-1339528D01*
X-225276Y-1359528D01*
X-215276Y-1299528D02*
X-185276Y-1299528D01*
X-200276Y-1299528D02*
X-200276Y-1359528D01*
X-170276Y-1309528D02*
X-165276Y-1299528D01*
X-150276Y-1299528D01*
X-145276Y-1309528D01*
X-145276Y-1319528D01*
X-150276Y-1329528D01*
X-165276Y-1329528D01*
X-170276Y-1339528D01*
X-170276Y-1359528D01*
X-145276Y-1359528D01*
X-295276Y-1437953D02*
X-295276Y-1447953D01*
X-290276Y-1457953D01*
X-270276Y-1457953D01*
X-265276Y-1447953D01*
X-265276Y-1397953D01*
X-255276Y-1457953D02*
X-255276Y-1417953D01*
X-245276Y-1397953D01*
X-235276Y-1397953D01*
X-225276Y-1417953D01*
X-225276Y-1457953D01*
X-255276Y-1437953D02*
X-225276Y-1437953D01*
X-215276Y-1457953D02*
X-215276Y-1397953D01*
X-185276Y-1397953D02*
X-185276Y-1457953D01*
X-215276Y-1427953D02*
X-185276Y-1427953D01*
X-175276Y-1457953D02*
X-175276Y-1397953D01*
X-150276Y-1397953D01*
X-145276Y-1407953D01*
X-145276Y-1417953D01*
X-150276Y-1427953D01*
X-175276Y-1427953D01*
M02*
